<svg xmlns="http://www.w3.org/2000/svg" viewBox="0 0 129.66 129.66"><defs><style>.a{fill:#009457;}.b{fill:#64b971;}.c{fill:#f0eeef;}.d{fill:#ff6e6e;}.e{fill:#1e323a;}</style></defs><path class="a" d="M107.15,107.15a76.88,76.88,0,0,0,2.61-106,3.62,3.62,0,0,0-5.24-.11L1.07,104.52a3.62,3.62,0,0,0,.11,5.24A76.88,76.88,0,0,0,107.15,107.15Z"/><line class="b" x1="1.17" y1="104.41" x2="104.41" y2="1.17"/><path class="b" d="M104.41,104.41a73,73,0,0,0,0-103.24L1.17,104.41A73,73,0,0,0,104.41,104.41Z"/><path class="c" d="M94.93,94.93a59.6,59.6,0,0,0,0-84.28L10.65,94.93A59.6,59.6,0,0,0,94.93,94.93Z"/><line class="c" x1="10.65" y1="94.93" x2="94.93" y2="10.65"/><path class="d" d="M90.24,90.24a53,53,0,0,0,0-74.89L15.35,90.24A53,53,0,0,0,90.24,90.24Z"/><line class="d" x1="15.35" y1="90.24" x2="90.24" y2="15.35"/><path class="e" d="M31.65,93a3,3,0,0,1-5.06-3.1c.86-1.4,4-3.92,5.36-3.07S32.51,91.6,31.65,93Z"/><path class="e" d="M43.49,89.47a3,3,0,0,1-5.62-1.91c.52-1.55,3-4.7,4.55-4.17S44,87.91,43.49,89.47Z"/><path class="e" d="M51.11,98.18a3,3,0,0,1-5.91-.6c.17-1.63,1.87-5.25,3.51-5.08S51.27,96.55,51.11,98.18Z"/><path class="e" d="M60.26,89.88a3,3,0,0,1-5.9.72c-.2-1.63.67-5.53,2.3-5.73S60.06,88.26,60.26,89.88Z"/><path class="e" d="M70.89,94.46a3,3,0,0,1-5.59,2c-.56-1.54-.58-5.54,1-6.09S70.33,92.91,70.89,94.46Z"/><path class="e" d="M75.55,83a3,3,0,0,1-5,3.19c-.88-1.39-1.78-5.28-.4-6.16S74.67,81.63,75.55,83Z"/><path class="e" d="M87.12,82.54a3,3,0,0,1-4.18,4.23C81.78,85.61,80,82,81.18,80.85S86,81.39,87.12,82.54Z"/><path class="e" d="M86.38,70.21a3,3,0,0,1-3.14,5c-1.39-.86-3.89-4-3-5.38S85,69.34,86.38,70.21Z"/><path class="e" d="M96.6,64.79a3,3,0,0,1-1.94,5.61c-1.55-.53-4.68-3-4.14-4.57S95.05,64.25,96.6,64.79Z"/><path class="e" d="M90.61,54a3,3,0,0,1-.65,5.9c-1.63-.18-5.23-1.92-5-3.55S89,53.81,90.61,54Z"/><path class="e" d="M97.49,44.68a3,3,0,0,1,.67,5.9c-1.63.18-5.52-.71-5.71-2.34S95.86,44.86,97.49,44.68Z"/><path class="e" d="M87.41,37.52a3,3,0,0,1,2,5.61c-1.54.54-5.54.53-6.08-1S85.86,38.07,87.41,37.52Z"/><path class="e" d="M89.59,26.16a3,3,0,0,1,3.16,5c-1.39.87-5.29,1.75-6.16.36S88.2,27,89.59,26.16Z"/></svg>