<svg xmlns="http://www.w3.org/2000/svg" viewBox="0 0 298.47 263.42"><defs><style>.cls-1{fill:none;stroke:#000;stroke-miterlimit:10;}.cls-2{fill:#009457;}.cls-3{fill:#64b971;}.cls-4{fill:#f0eeef;}.cls-5{fill:#ff6e6e;}.cls-6{fill:#1e323a;}.cls-7{fill:#f94141;}</style></defs><g id="Layer_3_copy" data-name="Layer 3 copy"><path class="cls-1" d="M71.18,60.28" transform="translate(-21.01 -7.35)"/></g><g id="Layer_3_copy_2" data-name="Layer 3 copy 2"><path class="cls-1" d="M96.55,66.12" transform="translate(-21.01 -7.35)"/></g><g id="Layer_4" data-name="Layer 4"><path class="cls-1" d="M159.32,39.17" transform="translate(-21.01 -7.35)"/><line class="cls-2" x1="82.09" y1="108.71" x2="190.8"/><path class="cls-2" d="M211.81,116.06a76.88,76.88,0,0,0,2.61-106,3.62,3.62,0,0,0-5.24-.11L105.73,113.43a3.62,3.62,0,0,0,.11,5.24A76.88,76.88,0,0,0,211.81,116.06Z" transform="translate(-21.01 -7.35)"/><line class="cls-3" x1="84.83" y1="105.97" x2="188.06" y2="2.74"/><path class="cls-3" d="M209.07,113.32a73,73,0,0,0,0-103.23L105.83,113.32A73,73,0,0,0,209.07,113.32Z" transform="translate(-21.01 -7.35)"/><path class="cls-4" d="M199.59,103.84a59.59,59.59,0,0,0,0-84.27l-84.28,84.27A59.59,59.59,0,0,0,199.59,103.84Z" transform="translate(-21.01 -7.35)"/><line class="cls-4" x1="94.31" y1="96.5" x2="178.58" y2="12.22"/><path class="cls-5" d="M194.9,99.15a53,53,0,0,0,0-74.89L120,99.15A53,53,0,0,0,194.9,99.15Z" transform="translate(-21.01 -7.35)"/><line class="cls-5" x1="99" y1="91.8" x2="173.89" y2="16.91"/><path class="cls-6" d="M136.31,101.91a3,3,0,0,1-5.06-3.1c.85-1.4,4-3.92,5.36-3.06S137.17,100.51,136.31,101.91Z" transform="translate(-21.01 -7.35)"/><path class="cls-6" d="M148.15,98.38a3,3,0,1,1-5.62-1.91c.52-1.55,3-4.69,4.55-4.17S148.68,96.83,148.15,98.38Z" transform="translate(-21.01 -7.35)"/><path class="cls-6" d="M155.76,107.1a3,3,0,1,1-5.9-.61c.16-1.63,1.87-5.25,3.5-5.08S155.93,105.47,155.76,107.1Z" transform="translate(-21.01 -7.35)"/><path class="cls-6" d="M164.92,98.8a3,3,0,0,1-5.9.71c-.2-1.63.67-5.53,2.3-5.73S164.72,97.17,164.92,98.8Z" transform="translate(-21.01 -7.35)"/><path class="cls-6" d="M175.55,103.37a3,3,0,1,1-5.59,2c-.56-1.54-.58-5.54,1-6.09S175,101.82,175.55,103.37Z" transform="translate(-21.01 -7.35)"/><path class="cls-6" d="M180.21,91.93a3,3,0,0,1-5,3.19c-.88-1.39-1.78-5.28-.4-6.16S179.33,90.54,180.21,91.93Z" transform="translate(-21.01 -7.35)"/><path class="cls-6" d="M191.78,91.46a3,3,0,1,1-4.18,4.22c-1.17-1.15-2.91-4.75-1.76-5.92S190.61,90.3,191.78,91.46Z" transform="translate(-21.01 -7.35)"/><path class="cls-6" d="M191,79.12a3,3,0,0,1-3.14,5c-1.39-.86-3.89-4-3-5.38S189.65,78.26,191,79.12Z" transform="translate(-21.01 -7.35)"/><path class="cls-6" d="M201.26,73.7a3,3,0,1,1-1.94,5.61c-1.55-.53-4.68-3-4.14-4.57S199.71,73.16,201.26,73.7Z" transform="translate(-21.01 -7.35)"/><path class="cls-6" d="M195.27,62.9a3,3,0,0,1-.65,5.9c-1.63-.18-5.24-1.92-5.06-3.55S193.64,62.72,195.27,62.9Z" transform="translate(-21.01 -7.35)"/><path class="cls-6" d="M202.14,53.59a3,3,0,1,1,.68,5.9c-1.63.19-5.52-.71-5.71-2.34S200.51,53.78,202.14,53.59Z" transform="translate(-21.01 -7.35)"/><path class="cls-6" d="M192.07,46.44a3,3,0,0,1,2,5.6c-1.55.54-5.54.54-6.08-1S190.52,47,192.07,46.44Z" transform="translate(-21.01 -7.35)"/><path class="cls-6" d="M194.25,35.07a3,3,0,0,1,3.16,5c-1.39.87-5.29,1.75-6.16.36S192.86,35.94,194.25,35.07Z" transform="translate(-21.01 -7.35)"/><path d="M90.81,257.14H88.52c-.44,0-.67-.26-.67-.81s.23-.82.67-.82h2.29v-2.4A3.94,3.94,0,0,1,95,249a4.56,4.56,0,0,1,2.84.81.77.77,0,0,1,.38.67,1,1,0,0,1-.85.87.94.94,0,0,1-.58-.21,2.77,2.77,0,0,0-1.65-.52,2.38,2.38,0,0,0-2.49,2.58v2.29h3.88c.44,0,.67.26.67.82s-.23.81-.67.81H92.67V269.9c0,.49-.32.76-.93.76s-.93-.27-.93-.76Z" transform="translate(-21.01 -7.35)"/><path d="M109.63,265.78a4.7,4.7,0,0,1-1.48,3.66,5.61,5.61,0,0,1-7.25,0,4.7,4.7,0,0,1-1.48-3.66v-5.63a4.69,4.69,0,0,1,1.48-3.65,5.61,5.61,0,0,1,7.25,0,4.69,4.69,0,0,1,1.48,3.65Zm-1.85-5.48a3.26,3.26,0,1,0-6.5,0v5.34a3.26,3.26,0,1,0,6.5,0Z" transform="translate(-21.01 -7.35)"/><path d="M123.35,265.78a4.7,4.7,0,0,1-1.48,3.66,5.61,5.61,0,0,1-7.25,0,4.7,4.7,0,0,1-1.48-3.66v-5.63a4.69,4.69,0,0,1,1.48-3.65,5.61,5.61,0,0,1,7.25,0,4.69,4.69,0,0,1,1.48,3.65Zm-1.86-5.48a3.26,3.26,0,1,0-6.5,0v5.34a3.26,3.26,0,1,0,6.5,0Z" transform="translate(-21.01 -7.35)"/><path d="M137.07,265.78a4.73,4.73,0,0,1-1.48,3.66,5.62,5.62,0,0,1-7.26,0,4.72,4.72,0,0,1-1.47-3.66v-5.63a4.71,4.71,0,0,1,4.84-5,4.08,4.08,0,0,1,3.51,1.59v-7c0-.49.32-.75.93-.75s.93.26.93.75Zm-1.86-5.48a3.26,3.26,0,1,0-6.5,0v5.34a3.26,3.26,0,1,0,6.5,0Z" transform="translate(-21.01 -7.35)"/><path d="M154.41,259h7.33c.44,0,.67.29.67.87s-.23.88-.67.88h-1.59v4.23a6,6,0,0,1-1.54,4.18,5.66,5.66,0,0,1-4.41,1.65,5.85,5.85,0,0,1-4.52-1.71,6,6,0,0,1-1.54-4.18,5.11,5.11,0,0,1,3.08-5.1,5.53,5.53,0,0,1,3-10.13,5.18,5.18,0,0,1,4,1.6,5,5,0,0,1,1.47,3.54v.4c0,.5-.31.76-1,.76s-1-.26-1-.76V255a3.38,3.38,0,0,0-3.54-3.6c-2.11,0-3.48,1.31-3.48,3.72A3.59,3.59,0,0,0,154.41,259ZM154.2,269c2.44,0,4-1.42,4-4.41v-3.91h-4.24c-2.29,0-3.83,1.74-3.83,4.17A3.84,3.84,0,0,0,154.2,269Z" transform="translate(-21.01 -7.35)"/><path d="M180,266.68c0-1.51-1-2.46-3.51-3.07-2.93-.73-4.4-2.21-4.4-4.41a3.56,3.56,0,0,1,1.36-2.9,5.07,5.07,0,0,1,3.33-1.13,5.33,5.33,0,0,1,3.46,1.18,3.65,3.65,0,0,1,1.45,2.93v.21c0,.49-.32.75-.93.75s-.93-.26-.93-.75v-.09a2.82,2.82,0,0,0-3.05-2.61,2.56,2.56,0,0,0-2.84,2.38c0,1.36,1.08,2.29,3.19,2.84,3.25.81,4.73,2.23,4.73,4.67s-1.88,4.09-4.81,4.09a5.37,5.37,0,0,1-3.54-1.19,3.74,3.74,0,0,1-1.42-3v-.11c0-.5.31-.76.92-.76s.93.26.93.76v.11a2.92,2.92,0,0,0,3.11,2.56C178.76,269.15,180,268.22,180,266.68Z" transform="translate(-21.01 -7.35)"/><path d="M184.88,260.15a4.72,4.72,0,0,1,1.48-3.65,5.61,5.61,0,0,1,7.25,0,4.23,4.23,0,0,1,1.48,3.28v.2c0,.49-.32.75-.93.75s-.92-.26-.92-.75v-.15a2.83,2.83,0,0,0-1-2.14,3.12,3.12,0,0,0-2.29-.9,3.18,3.18,0,0,0-3.25,3.51v5.34a3.18,3.18,0,0,0,3.25,3.51,3.12,3.12,0,0,0,2.29-.9,2.85,2.85,0,0,0,1-2.15V266c0-.5.31-.76.92-.76s.93.26.93.76v.2a4.25,4.25,0,0,1-1.48,3.28,5.61,5.61,0,0,1-7.25,0,4.73,4.73,0,0,1-1.48-3.66Z" transform="translate(-21.01 -7.35)"/><path d="M201,251.6c.17,1.24-2.15,1.24-2,0v-1.16c-.18-1.25,2.14-1.25,2,0ZM199,256c0-.5.32-.76.93-.76s.93.26.93.76V269.9c0,.49-.32.76-.93.76s-.93-.27-.93-.76Z" transform="translate(-21.01 -7.35)"/><path d="M214.93,266.16a4.35,4.35,0,0,1-1.45,3.28,5.56,5.56,0,0,1-7.22,0,4.47,4.47,0,0,1-1.43-3.43v-5.8a4.75,4.75,0,0,1,1.43-3.65,5,5,0,0,1,3.62-1.39,5.08,5.08,0,0,1,3.6,1.33,4.12,4.12,0,0,1,1.45,3.13c0,2.15-1.25,3.51-3.71,4.06l-3.57.82c-.64.14-1,.37-1,.75V266a3.19,3.19,0,0,0,6.38.12V266c0-.5.32-.76.93-.76s.93.26.93.76Zm-8.24-5.86v3a1.79,1.79,0,0,1,1-.46l3.05-.7c1.54-.37,2.29-1.21,2.29-2.55a3,3,0,0,0-3.19-2.84A3.17,3.17,0,0,0,206.69,260.3Z" transform="translate(-21.01 -7.35)"/><path d="M227.08,260.3a3.26,3.26,0,1,0-6.5,0v9.6c0,.49-.32.76-.93.76s-.93-.27-.93-.76v-9.75a4.72,4.72,0,0,1,1.48-3.65,5.62,5.62,0,0,1,7.26,0,4.72,4.72,0,0,1,1.47,3.65v9.75c0,.49-.31.76-.92.76s-.93-.27-.93-.76Z" transform="translate(-21.01 -7.35)"/><path d="M232.73,260.15a4.69,4.69,0,0,1,1.48-3.65,5.61,5.61,0,0,1,7.25,0,4.23,4.23,0,0,1,1.48,3.28v.2c0,.49-.32.75-.93.75s-.92-.26-.92-.75v-.15a2.83,2.83,0,0,0-1-2.14,3.12,3.12,0,0,0-2.29-.9,3.18,3.18,0,0,0-3.25,3.51v5.34a3.18,3.18,0,0,0,3.25,3.51,3.12,3.12,0,0,0,2.29-.9,2.85,2.85,0,0,0,1-2.15V266c0-.5.31-.76.92-.76s.93.26.93.76v.2a4.25,4.25,0,0,1-1.48,3.28,5.61,5.61,0,0,1-7.25,0,4.7,4.7,0,0,1-1.48-3.66Z" transform="translate(-21.01 -7.35)"/><path d="M256.54,266.16a4.32,4.32,0,0,1-1.45,3.28,5.56,5.56,0,0,1-7.22,0,4.46,4.46,0,0,1-1.42-3.43v-5.8a4.74,4.74,0,0,1,1.42-3.65,5,5,0,0,1,3.63-1.39,5.05,5.05,0,0,1,3.59,1.33,4.09,4.09,0,0,1,1.45,3.13c0,2.15-1.24,3.51-3.71,4.06l-3.57.82c-.64.14-1,.37-1,.75V266a3.2,3.2,0,0,0,6.39.12V266c0-.5.32-.76.92-.76s.93.26.93.76Zm-8.24-5.86v3a1.83,1.83,0,0,1,1-.46l3-.7c1.54-.37,2.3-1.21,2.3-2.55a3,3,0,0,0-3.19-2.84A3.17,3.17,0,0,0,248.3,260.3Z" transform="translate(-21.01 -7.35)"/><path class="cls-7" d="M47,214.34l-.59,1.22-.48-.52-.12.19a1.12,1.12,0,0,1-.2.33.38.38,0,0,1-.28.15v1.6c.45.22.67.5.67.85a7.25,7.25,0,0,1-.07,1,9.3,9.3,0,0,0-2,1.22c-.22-1,.41-1.89,1.9-2.56-.15-.22-.5-.33-1-.33s-1.23.69-1.75,2.07-1.06,2-1.85,2a1.68,1.68,0,0,1-.74-.44c0,.1-.24.49-.63,1.19-.1,0-.28.08-.52.16l-1.06.37-1.28.47a13.49,13.49,0,0,1-2.15.67,3.81,3.81,0,0,0-.75.13,5.26,5.26,0,0,1-.7.13q-4,0-9.32-6.39a17.28,17.28,0,0,0,.08-2.15c-.62-.86-.93-2.39-.93-4.56-.54-.25-1-1.64-1.37-4.16A96.91,96.91,0,0,1,21,194v-.33c0-.2,0-.51.07-.95s.05-.9.07-1.42c.15-1.83.23-3.18.23-4a55.18,55.18,0,0,1,.52-6.53c.37-3,.55-4.42.55-4.34v-5.9a21.27,21.27,0,0,0-.18-2.9,1.94,1.94,0,0,0,.55-.37c0,.1-.05.09-.07,0v-1c.79.79,1.3,1.27,1.52,1.45a1.29,1.29,0,0,1,.24-.15c.14-.08.3-.17.5-.3a6.25,6.25,0,0,1,.63-.33c2.68-.3,4.49-.45,5.46-.45q2.44,0,2.45,3.71a6.81,6.81,0,0,1-.32,1.08,5,5,0,0,0-.31,1.22c.07-.24-.15-.48-.67-.7a26.08,26.08,0,0,1-.15,5,7.39,7.39,0,0,0-.39,1.58,6.22,6.22,0,0,1-.31,1.35c0-.29-.13-.44-.38-.44v1.37c-.69,1.31-1,2.07-.92,2.26q.18,0,.63-1a22.27,22.27,0,0,0-.08,2.41c0-.17-.21-.57-.48-1.19l-.74,1.12a13.91,13.91,0,0,1,.07,1.89q-1.26,6.65-1.74,8.91a1.65,1.65,0,0,0-.15,1.07c0,.2.05.39.07.58s.05.32.06.41,0,.14,0,.16l-1.23.45c0,.25.31.37.93.37a10.91,10.91,0,0,0-1.15,3.19v.67a1.34,1.34,0,0,0,.86.18,1.07,1.07,0,0,1,.22,1q-.12.81-.63.93l1.15,3.41c.17-.17.22-.58.15-1.22,0,.76.07,1.9.07,3.41s.36,2.3.85,2.52c.08,2.33.83,3.75,2.27,4.27a22.06,22.06,0,0,0,3.34.15A34,34,0,0,0,47,214.34ZM24.49,191.92h.45V191h-.45Zm2.42.23h.48V191h-.48Zm.7,7.75v1.15h-.44V199.9Zm13,18.78a1,1,0,0,0-.59.37c.17.08.29.29.37.63a5.22,5.22,0,0,0,.29-.63C40.75,218.8,40.72,218.68,40.6,218.68Zm6.6-2.82-.11.93a3,3,0,0,1-.26,1.15,3.48,3.48,0,0,0-.29-1.86A1.65,1.65,0,0,1,47.2,215.86Zm1.45-2.26.22,1.22a7.32,7.32,0,0,0-1.59-.07A5.62,5.62,0,0,1,48.65,213.6Z" transform="translate(-21.01 -7.35)"/><path class="cls-7" d="M70.84,204.62a22.75,22.75,0,0,1-2.67,9.12l-3,5a4.82,4.82,0,0,1-.52-.52c-.07-.09-.1-.14-.07-.14a4.26,4.26,0,0,1-1.89,3l-2.3,1.34c-.2.07-.45-.22-.75-.89a1,1,0,0,0-.15.89l-.44.19a2.2,2.2,0,0,1-.63.14c-1.21,0-3-1.11-5.38-3.34a19.13,19.13,0,0,1-3.6-4.11c-.08-.45-.27-1.31-.6-2.6a2.36,2.36,0,0,0,.38-1.19,5.65,5.65,0,0,0-.67-2.37l.52.44.29-.37c-.59-.52-.89-1.78-.89-3.79A29.75,29.75,0,0,1,50,198.08a48,48,0,0,1,1.75-5.45,16.17,16.17,0,0,1,2-3.53,1,1,0,0,0-.6-1c.27-.34.73-.87,1.37-1.59l.82-.32,1.08-.39A15.08,15.08,0,0,1,60,185c2.28,0,3.42.6,3.42,1.82,0,.24-.46.82-1.37,1.74a1.42,1.42,0,0,0,1,.93c-.08.22,0,.49.37.81a2.45,2.45,0,0,0,.07-.89c.92.25,2.46,1.39,4.64,3.42a2.25,2.25,0,0,1,.48,1.89c.3.42.47.62.52.59-.24-.24-.37-.24-.37,0a1.75,1.75,0,0,0,.5.8,6.84,6.84,0,0,1,.54.65A36.66,36.66,0,0,1,70.84,204.62ZM49,207.21l.3-2h-.45l-.22,2Zm2.9-16.73h.37l-.3.92-.3-.14Zm1.22-1.9.3.15-.74,1.08-.34-.22Zm11.25,18.63a32,32,0,0,0-.6-6.75c0-.12-.18-1.19-.48-3.19,0-.42-.12-.63-.37-.63-.1,0-.18-.08-.22-.23a1.71,1.71,0,0,1-.1-.46.74.74,0,0,0,0-.28c.44-.07.67-.21.67-.41,0,.08-.13,0-.38-.37l-.22-.29a18.27,18.27,0,0,1-2.74-4.12c-1,1-2.26,3.32-3.64,7.08A33.21,33.21,0,0,0,54,208.18a23.7,23.7,0,0,0,.78,5.49c.67,2.67,1.52,4.37,2.56,5.08,1.39-.14,3-2,4.9-5.53A29.24,29.24,0,0,0,64.39,207.21ZM60.9,190.63a1.08,1.08,0,0,0-.34-.82.84.84,0,0,1-.29.52A3.79,3.79,0,0,0,60.9,190.63Zm1.44-.38a3,3,0,0,0-.27-.42l-.36-.49a.57.57,0,0,1-.14-.31l-.38.85A1,1,0,0,0,62.34,190.25Zm1.12,21.68.55-1.15-.33-.08-.52,1.08Zm1.82-9.21a2.58,2.58,0,0,0-.6-1.89,1.21,1.21,0,0,0-.29.89C64.39,202.17,64.68,202.5,65.28,202.72Zm-.15-10.87.26-.89h-.34l-.29.74Zm.07,21.82h.41v-.59H65.2ZM66.5,205l.3-.6-.37-.15-.3.6Zm1.3-10.39h.37L68,193.22H67.5Zm.93,2.48h.37v-.59h-.37Z" transform="translate(-21.01 -7.35)"/><path class="cls-7" d="M93.41,204.62a22.94,22.94,0,0,1-2.68,9.12l-3,5a3.72,3.72,0,0,1-.51-.52c-.08-.09-.1-.14-.08-.14a4.26,4.26,0,0,1-1.89,3L83,222.39c-.2.07-.45-.22-.74-.89a.94.94,0,0,0-.15.89l-.45.19a2.2,2.2,0,0,1-.63.14q-1.82,0-5.38-3.34a19.76,19.76,0,0,1-3.6-4.11c-.07-.45-.27-1.31-.59-2.6a2.44,2.44,0,0,0,.37-1.19,5.51,5.51,0,0,0-.67-2.37l.52.44.3-.37c-.6-.52-.89-1.78-.89-3.79a29.27,29.27,0,0,1,1.52-7.31,48.05,48.05,0,0,1,1.74-5.45,16.6,16.6,0,0,1,2-3.53,1,1,0,0,0-.6-1c.28-.34.73-.87,1.38-1.59l.81-.32,1.08-.39a15.12,15.12,0,0,1,3.64-.81c2.27,0,3.41.6,3.41,1.82,0,.24-.46.82-1.37,1.74a1.42,1.42,0,0,0,1,.93c-.07.22,0,.49.37.81a2.45,2.45,0,0,0,.07-.89q1.38.38,4.64,3.42a2.28,2.28,0,0,1,.49,1.89c.29.42.47.62.52.59-.25-.24-.38-.24-.38,0s.17.42.51.8a7.68,7.68,0,0,1,.53.65A36.84,36.84,0,0,1,93.41,204.62Zm-21.82,2.59.29-2h-.44l-.23,2Zm2.89-16.73h.37l-.3.92-.29-.14Zm1.22-1.9.3.15-.74,1.08-.33-.22ZM87,207.21a32,32,0,0,0-.6-6.75c0-.12-.18-1.19-.48-3.19,0-.42-.12-.63-.37-.63-.1,0-.17-.08-.22-.23a1.71,1.71,0,0,1-.09-.46.9.9,0,0,0-.06-.28c.45-.07.67-.21.67-.41,0,.08-.13,0-.37-.37l-.23-.29a18.27,18.27,0,0,1-2.74-4.12q-1.56,1.44-3.64,7.08a33.48,33.48,0,0,0-2.23,10.62,23.7,23.7,0,0,0,.78,5.49c.67,2.67,1.53,4.37,2.56,5.08,1.39-.14,3-2,4.9-5.53A28.65,28.65,0,0,0,87,207.21Zm-3.49-16.58a1.11,1.11,0,0,0-.33-.82.81.81,0,0,1-.3.52A3.79,3.79,0,0,0,83.46,190.63Zm1.45-.38a5,5,0,0,0-.28-.42l-.35-.49a.6.6,0,0,1-.15-.31l-.37.85A1,1,0,0,0,84.91,190.25ZM86,211.93l.56-1.15-.34-.08-.52,1.08Zm1.82-9.21a2.63,2.63,0,0,0-.59-1.89,1.21,1.21,0,0,0-.3.89C87,202.17,87.25,202.5,87.84,202.72Zm-.15-10.87L88,191h-.33l-.3.74Zm.07,21.82h.41v-.59h-.41Zm1.3-8.68.3-.6-.37-.15-.3.6Zm1.3-10.39h.37l-.22-1.38h-.44Zm.93,2.48h.37v-.59h-.37Z" transform="translate(-21.01 -7.35)"/><path class="cls-7" d="M124.84,225.29v.85l-2.64,1a.86.86,0,0,1-.42-.18.87.87,0,0,0-.43-.19,9.12,9.12,0,0,1-4.19-1.15,24.67,24.67,0,0,1-5.46-4.08,22.42,22.42,0,0,1-4.64-6.23c-.12-.23-.41-.71-.85-1.45s-.82-1.37-1.12-1.89q-.66,2.26-1.44,4.56a24.65,24.65,0,0,0-.93,4.79,5,5,0,0,0-.67.59,3.71,3.71,0,0,1-3.34-3.49,9.3,9.3,0,0,1,.06-1.28q.09-1.09.09-1.17a21.47,21.47,0,0,0-.52-3.41,13.24,13.24,0,0,0,.08-1.89c-.35-1-.56-1.7-.64-2a4.09,4.09,0,0,1,.15-.67,3.82,3.82,0,0,0,.15-.71q0-.28-.3,0c-1.06-5.34-1.52-8.61-1.37-9.79-.62-.7-.82-2-.59-3.9a37.85,37.85,0,0,1-.45-3.93,20.32,20.32,0,0,1-.26-4,16,16,0,0,0-.22-3.49c0-.2,0-.47-.07-.82l-.15-1.52V175q0-.92,1.3-14.58a29,29,0,0,0,6.45-.15c0,.05.27.4.75,1.06a4.52,4.52,0,0,1,.7,1.17l-1,2a10,10,0,0,0-1.11,2.74q-.08,2.82-1.08,9.8c.15,1.53,0,2.5-.37,2.89,0,.3.17.45.52.45a2.44,2.44,0,0,0-.74,1.15,4.21,4.21,0,0,0,.74.52q-1.23,1.67-.45,4.86a5.47,5.47,0,0,1-.15,2.12c-.07.42-.16.86-.26,1.33l0,.26a1,1,0,0,0,.18.45.93.93,0,0,1,.19.4,7.11,7.11,0,0,1-.08,1.67c0,.57-.07,1.11-.07,1.6a4.2,4.2,0,0,0,.2.69,5.06,5.06,0,0,1,.24.76q-.18.93-.07,10.09c0,.08,0,.46.11,1.15a14.1,14.1,0,0,1,.11,1.52h.67a2.68,2.68,0,0,1,0-1.07,16.07,16.07,0,0,0,1.3-2.9,43.58,43.58,0,0,1-.07-4.45,8.57,8.57,0,0,1,.92-2.82,16.7,16.7,0,0,0,2-2.15l1.3-1.82a63,63,0,0,1,5.31-5.68,3.45,3.45,0,0,0,1.15-.78,8.21,8.21,0,0,1,.52-.89,42.68,42.68,0,0,1,5.2-.26,3.26,3.26,0,0,1,1.55.54c.62.36.93.66.93.91q0,.74-3.12,2.37a3.15,3.15,0,0,1-.66.82,17.52,17.52,0,0,0-1.6.85,59,59,0,0,0-6.68,5.72c-.12.52-.51,1.66-1.15,3.41a5,5,0,0,0-.7,2.19,8.33,8.33,0,0,0,1.15,3.49c.14.3.41.81.79,1.54s.68,1.31.88,1.73q.48,1.11,4.93,8.6a29.85,29.85,0,0,0,2.67,3.57c1.93,2.08,3.43,3.11,4.49,3.11a.94.94,0,0,0,.34-.07.85.85,0,0,1,.33-.07A10,10,0,0,1,124.84,225.29ZM96.89,198.68l.23-.45-.3-.07-.26.44Z" transform="translate(-21.01 -7.35)"/><path class="cls-7" d="M162.13,188.21a1.14,1.14,0,0,1-.07.3c-.05.15-.13.4-.24.76s-.22.71-.32,1.06a11,11,0,0,0-.52,2.45,19.27,19.27,0,0,1-.7,4.15q-.08,2.34-1,8.46c.1.1.17.15.22.15a1.37,1.37,0,0,1-.44,1.15,3.31,3.31,0,0,0,.3.89l-.52,3.08v-.11a.64.64,0,0,0,.11.34,2.08,2.08,0,0,0,.22.31c.07.09.11.14.11.17q-.08.63.3,5.19a2.27,2.27,0,0,1-.3.71,2.47,2.47,0,0,0-.3.67c0,.05,0,.14,0,.28l.15.68c.07.32.14.63.19.93.37,1.43.56,2.24.59,2.41v-.15a.44.44,0,0,0-.3-.07.84.84,0,0,0-.41.11l-.18.11a1.53,1.53,0,0,0-.56-1,1.19,1.19,0,0,0-.37.89c0,.76.34,1.15,1,1.15q.15,0,.15-.45c.25.79.55,2,.89,3.49l-.18-.09-.37-.15a.84.84,0,0,0-.41-.06,4.14,4.14,0,0,1,.44-.37,1.16,1.16,0,0,0-.81-.55c-.3,0-.33.12-.08.37a6.25,6.25,0,0,1-2.6-3.71,3,3,0,0,1-.92-1.82,9.6,9.6,0,0,0-.3-1.67,3.12,3.12,0,0,1-.67.59,1.7,1.7,0,0,0-.07-.67c-.08-.27-.15-.52-.22-.74l-.12-.33a20.81,20.81,0,0,0-.81-3.79,16.73,16.73,0,0,1-1.75,3c-.74,1.08-1.37,2.07-1.89,3a6.61,6.61,0,0,0-.26-1.07c-1,.64-1.26,1.4-.89,2.26.15.15.07.22-.22.22-.1,0-.16,0-.19-.11s-.08-.11-.18-.11a6.56,6.56,0,0,0-1.27.65,6.33,6.33,0,0,1-1.26.65,1.79,1.79,0,0,1-.7-.26l-.45-.26a7.07,7.07,0,0,1-4.86-3.49,9.72,9.72,0,0,1-1.45-5.27,24.15,24.15,0,0,1,1.08-4.23c.45-1.18,1.08-3,1.89-5.41a2.48,2.48,0,0,0,.93-.67c-.22-.82,0-2,.82-3.68l1-1.72c.43-.76.76-1.32,1-1.69a23.52,23.52,0,0,1,1.08-2.49c.32-.22.71-.45,1.15-.7.2-.2.45-.47.74-.82s.61-.63.78-.63.22.08.28.24.14.24.24.24a2.91,2.91,0,0,0,.39-.05l.85-.17c.39-.07.77-.14,1.14-.18,1.38-.3,2.14-.45,2.26-.45a.82.82,0,0,1,.45.19.78.78,0,0,0,.4.18,4.36,4.36,0,0,0,1.67-.44,8.05,8.05,0,0,0,1.12-1.6c.71-1.11,1.27-1.67,1.67-1.67a.38.38,0,0,1,.26.11.36.36,0,0,0,.29.11,3.59,3.59,0,0,0,.82-.29,3.12,3.12,0,0,1,.85-.3C161.7,186.47,162.13,187.05,162.13,188.21Zm-8,7.83q0-.48-.33-.48c-.38-1.26-.62-1.89-.75-1.89q-.7,0-2.89,3.41-1.49,2.59-2.34,3.9-4.26,10.65-4.27,15.58c0,.35.1.52.3.52a13,13,0,0,0,4.56-3.71v.82a5,5,0,0,1,.67-1,3.17,3.17,0,0,1,.63.11l.45.11c0-.29,0-.73-.08-1.3a1,1,0,0,1,.38-1l.37.22c.22.18.4.31.55.41a2.71,2.71,0,0,1,.76-1.52,3.47,3.47,0,0,0,.84-1.45A87.63,87.63,0,0,0,154.08,196Zm-6.64,23.64,1.07-.55-.15-.23-.92.48Zm2.22-1.89.75-.78-.23-.15-.74.67Zm2.56-8.31V210h-.29v-.55Zm0,3.48.26-.51-.33-.15-.22.52Zm4.57,9.36.63-.23-.15-.29-.48.22Zm1.74-2.79h.41V219h-.41Z" transform="translate(-21.01 -7.35)"/><path class="cls-7" d="M185.59,186.54a3.18,3.18,0,0,1-1.67,1.23c-.08.1-.46.49-1.16,1.19a15,15,0,0,1-3.93,1.15c-2.23.44-3.72.73-4.49.85a31.94,31.94,0,0,0-.22,7.35c.15,1.46.22,2.2.22,2.22a4.66,4.66,0,0,0-.22-1.15H174a2.78,2.78,0,0,0,0,.78c.05.35.1.67.15,1l.11.44a11.15,11.15,0,0,1-.3,2.53,18.53,18.53,0,0,0-.3,2.48,29.53,29.53,0,0,0,.17,3.4c.14,1.44.2,2.19.2,2.24a6,6,0,0,1-.22,1.67,9.21,9.21,0,0,1,.37,2.9v.87c0,.18,0,.43,0,.72s0,.61,0,.93,0,.7,0,1.13,0,.89,0,1.36a74.89,74.89,0,0,0,.37,7.53c.22,2.23.53,3.61.93,4.16.07.07,0,.3-.37.7,0,.35.07,1,.07,2-.64.07-1.34-.39-2.08-1.37a7.57,7.57,0,0,1-1.26-2.57,8.64,8.64,0,0,0-.11-1.37,8.34,8.34,0,0,1-1-2.08,85.82,85.82,0,0,1-2-12c-.13-3.49-.26-6.68-.41-9.58q-.15-2.15.15-10.8c0-.09-.08-.34-.17-.74s-.15-.73-.2-1a10.88,10.88,0,0,0,.15-3.64q-.42-.41-4.24-3a.58.58,0,0,0-.07-.22c0-.1-.13-.27-.24-.52l-.32-.7a34.64,34.64,0,0,1,4.49-.23c.08,0,.15-.11.23-.33s-.08-.8-.23-2a21.19,21.19,0,0,1-.07-2.19c.17-.61.32-1.27.45-2q.11-7.68.07-8.31a18.94,18.94,0,0,0,2.3-.23c1-.19,1.6-.29,1.74-.29a4.14,4.14,0,0,1,2.23.55,1.64,1.64,0,0,1,.89,1.41,24.23,24.23,0,0,0-.78,5.2c0,.2-.05.55-.07,1.06s0,.88-.08,1.13q-.1,4.08.49,5.45l5.75.15,4.53.45,0,0h.23Zm-13.74,43.94V229.4h-.33l-.07,1.08Zm.23,1.82.52-.48-.23-.23-.52.49Z" transform="translate(-21.01 -7.35)"/><path class="cls-7" d="M239.73,224.32v1.52a7.74,7.74,0,0,1-6.16-2.89q-.67-.78-1.45-5.57a7.57,7.57,0,0,1-.07-2.19,1.37,1.37,0,0,1,.29-.52,1.23,1.23,0,0,0,.3-.63,1.18,1.18,0,0,0-.07-.44,2.69,2.69,0,0,0-.89,1q-1-6.3-1.23-8.13a77.48,77.48,0,0,1-.74-8.49c-.55,0-.93.33-1.15,1a90.76,90.76,0,0,0-3.12,11.91,62.83,62.83,0,0,1-2.6,8.28l-.87-.45-.74-.39-.6-.32c-.18-.09-.33-.17-.44-.24l-.32-.15a.36.36,0,0,1-.18-.09l0,0c-.12,0-.2,0-.22.11s-.1.11-.22.11q.07,0-.15-.24a2.69,2.69,0,0,0-.74-.49,2.72,2.72,0,0,0-1.15-.24,18.78,18.78,0,0,1-1.45-6.31,13.41,13.41,0,0,0-.3-2c-.07-.42-.14-.83-.18-1.24s-.1-.77-.13-1.09a5.08,5.08,0,0,0-.1-.64c-.07-1.11,0-1.78.23-2V193.15c-.7.07-1.55,1-2.56,2.89a16.49,16.49,0,0,0-1.75,4.34c-.35,1.71-.7,4.09-1.08,7.13l-.66,6.75a30.08,30.08,0,0,1-2,7.54,6.47,6.47,0,0,0-2-1.38,11.78,11.78,0,0,1-1.82-.52,2.06,2.06,0,0,1-1.45-1.15,87.69,87.69,0,0,1-1.37-17.25,1.8,1.8,0,0,1,.37-1.3,26.12,26.12,0,0,1-.22-4.08c0-6.24.74-9.35,2.22-9.35a8.18,8.18,0,0,1,2.79.66q2.07.78,2.07,1.86a7.9,7.9,0,0,1-.44,1.19,6.13,6.13,0,0,0-.48,1.44c-.28,1.61-.62,5-1,10.06l.15,5.9a19,19,0,0,0,2.48-4.86q1.46-3.63,2.23-5.16c.34-.54.83-1.33,1.45-2.37s1.08-1.82,1.41-2.34q1.85-3.08,1.85-4.34a1.5,1.5,0,0,0-.18-.6l.89-.15a9.08,9.08,0,0,1,1-.14,10.13,10.13,0,0,1,3.11.66c1.36.38,2.12.83,2.27,1.38.09,1.33.14,2.5.14,3.49,0,1.46-.07,3.48-.22,6.08a33.16,33.16,0,0,0-.15,3.79,9.13,9.13,0,0,0,1-1.67l-.08.33a1.94,1.94,0,0,0-.11.45l.33.37a7.79,7.79,0,0,1,.23-1.6c.05-.07.16-.26.33-.56l.35-.61c.06-.11.16-.29.28-.54a4.39,4.39,0,0,0,.26-.61c.05-.16.1-.36.15-.59a3.14,3.14,0,0,0,.07-.65,3.32,3.32,0,0,1,.08-.56.42.42,0,0,1,.44-.29.52.52,0,0,1,.32.07c.06,0,.08.1.05.15s0,.07,0,.07c.18-.62.94-2.77,2.31-6.45a12.69,12.69,0,0,0,.37-3.34,2.55,2.55,0,0,1,1.22-1c.15,0,1.26-.07,3.34-.07s3.34.83,3.34,2.48a9.45,9.45,0,0,1-.52,2,18.44,18.44,0,0,0-.48,1.93l.56,11.61c.17,2.3.49,4.92,1,7.83q.45,2.94,1.45,9.13c.15.42.36,1,.63,1.6A5.73,5.73,0,0,1,239.73,224.32Z" transform="translate(-21.01 -7.35)"/><path class="cls-7" d="M259.54,203.46a2,2,0,0,1-.52,1.3c-2.92,1.24-4.84,2-5.78,2.38a40.81,40.81,0,0,1-6.16,2,.88.88,0,0,0-.38.77,2.22,2.22,0,0,0,0,1,7.51,7.51,0,0,1,.08,1.08,9.75,9.75,0,0,0,1.82,5.75,6.64,6.64,0,0,0,5.56,3,15.86,15.86,0,0,0,3.19-2.19,1.62,1.62,0,0,1,.52,1.44,1.91,1.91,0,0,1-.18.39l-.21.39a3,3,0,0,1-.2.37,3.34,3.34,0,0,1-.24.38,3.06,3.06,0,0,0-.22.29,1.2,1.2,0,0,1-.26.28l-.3.21a.94.94,0,0,1-.33.14,1.42,1.42,0,0,1-.36,0c-.19,0-.29,0-.29-.07s-.08-.15-.23-.15a.4.4,0,0,0-.4.28c-.08.18-.14.27-.19.27a2.55,2.55,0,0,1-.74.23,5.18,5.18,0,0,1-.93.15,1.09,1.09,0,0,1-.93-.71,5.8,5.8,0,0,1-.59.85l-.67-.07a7.65,7.65,0,0,0-.78-.07,1.35,1.35,0,0,1-1.22-.93,1.32,1.32,0,0,0-.08.63,11.31,11.31,0,0,1-2.11-.71,17.85,17.85,0,0,1-3.68-3.41,9.18,9.18,0,0,0-.74-2.12,10.81,10.81,0,0,1-1.22-1.59,20.44,20.44,0,0,1-.89-6.53q0-8.94,5.3-19.71a15.67,15.67,0,0,1,4.42-1.89,18.37,18.37,0,0,1,4.71-.85c.1,0,.55.1,1.36.29s1.3.31,1.5.34a11.16,11.16,0,0,1,1.22,2.11q.38,1.11.49,8.91a24.84,24.84,0,0,0,.29,3.34c.08.44.14.88.21,1.3s.1.72.13.89S259.54,203.44,259.54,203.46Zm-5.38-7.34a36.05,36.05,0,0,0-1.07-6.16,1.63,1.63,0,0,0-1.45.44,26.6,26.6,0,0,0-1.74,2.6q-.3.56-1.82,5.68a45.92,45.92,0,0,0-1.38,5.56,2.09,2.09,0,0,0,.15,1.08h.67a19.45,19.45,0,0,0,3.12-.78,4.56,4.56,0,0,1,.68-.15l.75-.13a2.36,2.36,0,0,0,.55-.18.77.77,0,0,0,.39-.36q0-.56.15-3.45c0-.05.15-.14.45-.29a13.32,13.32,0,0,1-.08-1.9c0-.09.14-.42.34-1A5.86,5.86,0,0,0,254.16,196.12Z" transform="translate(-21.01 -7.35)"/><path class="cls-7" d="M284.26,188.21a1.33,1.33,0,0,1-.08.3c-.05.15-.13.4-.24.76s-.21.71-.31,1.06a11,11,0,0,0-.52,2.45,19.3,19.3,0,0,1-.71,4.15q-.07,2.34-1,8.46c.1.1.17.15.22.15a1.37,1.37,0,0,1-.44,1.15,3.13,3.13,0,0,0,.29.89l-.52,3.08v-.11a.74.74,0,0,0,.11.34,2.08,2.08,0,0,0,.23.31c.07.09.11.14.11.17q-.07.63.3,5.19a2.27,2.27,0,0,1-.3.71,2.47,2.47,0,0,0-.3.67,1.48,1.48,0,0,0,0,.28c0,.13.07.36.15.68s.13.63.18.93c.37,1.43.57,2.24.6,2.41v-.15a.44.44,0,0,0-.3-.07.81.81,0,0,0-.41.11l-.18.11a1.53,1.53,0,0,0-.56-1,1.19,1.19,0,0,0-.37.89c0,.76.33,1.15,1,1.15q.15,0,.15-.45c.25.79.54,2,.89,3.49l-.19-.09a2.24,2.24,0,0,0-.37-.15.82.82,0,0,0-.41-.06,4.46,4.46,0,0,1,.45-.37c-.3-.37-.57-.55-.82-.55s-.32.12-.07.37a6.2,6.2,0,0,1-2.6-3.71,3,3,0,0,1-.93-1.82,9.13,9.13,0,0,0-.29-1.67,3.12,3.12,0,0,1-.67.59,1.74,1.74,0,0,0-.08-.67c-.07-.27-.14-.52-.22-.74l-.11-.33a20.2,20.2,0,0,0-.82-3.79,16.13,16.13,0,0,1-1.74,3c-.74,1.08-1.37,2.07-1.89,3a6.61,6.61,0,0,0-.26-1.07c-1,.64-1.26,1.4-.89,2.26.15.15.07.22-.23.22-.1,0-.16,0-.18-.11a.18.18,0,0,0-.19-.11,6.33,6.33,0,0,0-1.26.65,6.33,6.33,0,0,1-1.26.65,1.87,1.87,0,0,1-.71-.26l-.44-.26a7.07,7.07,0,0,1-4.86-3.49,9.64,9.64,0,0,1-1.45-5.27,24.15,24.15,0,0,1,1.08-4.23c.44-1.18,1.07-3,1.89-5.41a2.56,2.56,0,0,0,.93-.67c-.23-.82.05-2,.81-3.68.23-.39.55-1,1-1.72s.76-1.32,1-1.69a23.52,23.52,0,0,1,1.08-2.49c.32-.22.7-.45,1.15-.7.19-.2.44-.47.74-.82s.6-.63.78-.63.21.08.28.24.14.24.24.24l.39-.05.85-.17c.38-.07.76-.14,1.13-.18,1.39-.3,2.14-.45,2.27-.45a.77.77,0,0,1,.44.19.84.84,0,0,0,.41.18,4.41,4.41,0,0,0,1.67-.44,8.33,8.33,0,0,0,1.11-1.6c.72-1.11,1.28-1.67,1.67-1.67a.36.36,0,0,1,.26.11.4.4,0,0,0,.3.11,3.59,3.59,0,0,0,.82-.29,3,3,0,0,1,.85-.3C283.83,186.47,284.26,187.05,284.26,188.21ZM276.21,196c0-.32-.12-.48-.34-.48-.37-1.26-.62-1.89-.74-1.89-.47,0-1.44,1.14-2.89,3.41q-1.49,2.59-2.34,3.9-4.27,10.65-4.27,15.58c0,.35.1.52.3.52a13,13,0,0,0,4.56-3.71v.82a4.61,4.61,0,0,1,.67-1,3.42,3.42,0,0,1,.63.11l.45.11c0-.29,0-.73-.08-1.3a1,1,0,0,1,.37-1l.37.22c.23.18.41.31.56.41a2.64,2.64,0,0,1,.76-1.52,3.59,3.59,0,0,0,.84-1.45A89.08,89.08,0,0,0,276.21,196Zm-6.65,23.64,1.08-.55-.15-.23-.93.48Zm2.23-1.89.74-.78-.22-.15-.74.67Zm2.56-8.31V210h-.3v-.55Zm0,3.48.26-.51-.33-.15-.23.52Zm4.57,9.36.63-.23-.15-.29-.48.22Zm1.74-2.79h.41V219h-.41Z" transform="translate(-21.01 -7.35)"/><path class="cls-7" d="M296.62,160.23v.86a1.73,1.73,0,0,1-.26.53,1.44,1.44,0,0,0-.26.58,41.49,41.49,0,0,0-.63,5.12q0,2-1.23,13.73l-.74.78.26.26a.72.72,0,0,1,.26.41v.93a4.07,4.07,0,0,1,.07.81,9.58,9.58,0,0,1-.07,1.67,5.32,5.32,0,0,1-.47,1.13,5,5,0,0,0-.42,1,3.94,3.94,0,0,0,.37.95,3.94,3.94,0,0,1,.37,1,7.9,7.9,0,0,1-.22,1,5.64,5.64,0,0,0-.22,1.15c0,.5-.05,2.2-.15,5.12a39.12,39.12,0,0,0-.23,4.6c.05,1.79.08,3.31.08,4.57-.08.32-.26,1.41-.56,3.27-.07.54-.14,1.06-.2,1.55s-.11.85-.13,1.06,0,.33,0,.35a3.9,3.9,0,0,0,.26.82,6.36,6.36,0,0,1,.3.93,31.88,31.88,0,0,0,0,4,28.21,28.21,0,0,0,.37,3.41c.07.45.14.89.2,1.32s.11.74.13.91a2.38,2.38,0,0,1,0,.3,4.16,4.16,0,0,1-.19.78,4.05,4.05,0,0,0-.18.81c-3-.67-4.49-3.13-4.49-7.38a11.54,11.54,0,0,1,.29-2.75,3,3,0,0,1-.51-2l.07-2.38a.38.38,0,0,0,.3-.37,3.61,3.61,0,0,1-.52-2.11V201.2a.77.77,0,0,0,.22-.15,2.09,2.09,0,0,0,.3-.29v-4.64l-.54-.45a.47.47,0,0,1-.11-.33,3.18,3.18,0,0,0-.1-.52.53.53,0,0,1,.06-.26.33.33,0,0,1,.13-.15l0,0a14.81,14.81,0,0,1,0-2.67,4.48,4.48,0,0,1,.11-.67,5.62,5.62,0,0,0,.11-.7c0-.05,0-.42-.09-1.12a8.45,8.45,0,0,1-.06-1.37,4.82,4.82,0,0,1,.22-.83,4.54,4.54,0,0,0,.23-.84c0-.07-.13-.67-.37-1.78s-.38-1.82-.38-1.89a66.92,66.92,0,0,1,.45-6.68,2.89,2.89,0,0,0,.3-.67,15.59,15.59,0,0,1-.15-5.34c.05-.45.07-1.83.07-4.16v-1.93c.05-.57.08-1,.08-1.34v-1a2.32,2.32,0,0,1,.59-.44l.48.37a1.51,1.51,0,0,1,1.12-.37l.4.37a1.24,1.24,0,0,1,.08-.37.5.5,0,0,1,.37-.15c.1,0,.16,0,.18.07a.2.2,0,0,0,.19.08l.19-.08.53-.24.73-.31a5.18,5.18,0,0,1,1.67-.67q.15,0,.18.18c0,.13.09.19.19.19A1.69,1.69,0,0,1,296.62,160.23Zm-7.76,48.06.15-1.08h-.3l-.22,1.08Zm.22,10.09.15-.7h-.37l-.07.7ZM292.42,204l.23-.71h-.3l-.22.63Z" transform="translate(-21.01 -7.35)"/><path class="cls-7" d="M319.48,183.2s-.28.56-.82,1.6a10.59,10.59,0,0,0-1,2.26q-1,5.69-2.12,11.25a8.6,8.6,0,0,1,.08,1.44,6.78,6.78,0,0,1-2.23,2c-.22-.64-.45-1.22-.67-1.74a12.44,12.44,0,0,1-1.07-1.19,16.41,16.41,0,0,1-.89-4c-.08-.52-.18-1.28-.32-2.3s-.24-1.77-.32-2.26a4.16,4.16,0,0,1-1.11-.52,6.78,6.78,0,0,0-1.3-.63c-.72,0-1.3.46-1.74,1.37a4,4,0,0,0-.56,1.89,11.08,11.08,0,0,0,2.3,6.24,53.78,53.78,0,0,0,4.79,5.57,42,42,0,0,1,4.56,5,10.92,10.92,0,0,1,2.19,6.16c0,1.6-.91,3.4-2.74,5.38a14,14,0,0,1-5.24,4,9.22,9.22,0,0,1-2.89.29c-.12,0-.47,0-1,.12s-.9.11-1,.11a6.51,6.51,0,0,1-1.37-.6,4.27,4.27,0,0,0-1.23-.55.27.27,0,0,0-.26.13.29.29,0,0,1-.26.13,8.5,8.5,0,0,1-2-1l-1.85-1.15c-1.22-.59-1.82-1.05-1.82-1.37q0-1.26,5.19-11.09a14.94,14.94,0,0,1,.89,3,13.92,13.92,0,0,1-.29,2.9q-.3,1.74-.3,2c0,1,.2,1.45.59,1.45h.78a13.21,13.21,0,0,0,4.46-1,10.84,10.84,0,0,1,1.15-1.52c1.13-.84,2-1.51,2.74-2a4,4,0,0,1,.56-1.5,3.91,3.91,0,0,0,.52-1.21c0-.47-.7-1.58-2.08-3.34q-1.08-1.29-3.36-3.89c-1.52-1.73-2.65-3.05-3.39-3.94-2.73-3.63-4.2-6.94-4.42-9.9l-.22-.49a2,2,0,0,1-.23-.7c0-.6.64-1.31,1.9-2.15a6.85,6.85,0,0,1,2.45-1.38.68.68,0,0,1,.4.17.74.74,0,0,0,.41.17c.67,0,1-.19,1-.56l-.14-.15a9.34,9.34,0,0,1,4.64.15c.27.07.52-.06.76-.41a5.33,5.33,0,0,0,.61-1.71c.44-1.58.95-2.37,1.52-2.37a1.23,1.23,0,0,1,.48.13,1.23,1.23,0,0,0,.48.13c.3,0,.54-.21.71-.63a23.14,23.14,0,0,0,3.19-.15,11.41,11.41,0,0,0,.48,1.19A6.12,6.12,0,0,1,319.48,183.2Z" transform="translate(-21.01 -7.35)"/></g></svg>